<?xml version="1.0" encoding="UTF-8" standalone="no"?>
<!DOCTYPE svg PUBLIC "-//W3C//DTD SVG 20010904//EN"
              "http://www.w3.org/TR/2001/REC-SVG-20010904/DTD/svg10.dtd">

<svg xmlns="http://www.w3.org/2000/svg"
     width="0.333333in" height="0.333333in"
     viewBox="0 0 100 100">
  <path id="Selection"
        fill="black" stroke="black" stroke-width="1"
        d="M 41.00,28.00
           C 41.00,28.00 52.00,28.00 52.00,28.00
             52.00,28.00 52.00,38.00 52.00,38.00
             52.00,38.00 61.00,38.00 61.00,38.00
             61.00,38.00 61.00,46.00 61.00,46.00
             61.00,46.00 53.00,46.00 53.00,46.00
             53.00,46.00 53.00,51.00 53.00,51.00
             62.48,51.24 71.07,54.91 73.00,65.00
             65.02,68.86 60.20,77.31 60.00,86.00
             62.76,86.06 66.41,86.03 68.68,87.85
             70.62,89.41 71.26,92.11 68.68,93.40
             68.68,93.40 59.00,94.58 59.00,94.58
             50.49,95.70 33.10,95.48 25.00,93.00
             27.85,85.11 32.21,88.04 32.27,81.96
             32.31,78.08 31.03,74.21 28.89,71.02
             25.37,65.75 18.21,63.17 25.23,56.34
             26.05,55.53 27.01,54.86 28.02,54.30
             29.56,53.44 31.28,52.98 33.00,52.63
             36.01,52.01 37.99,52.03 41.00,52.00
             41.00,52.00 41.00,46.00 41.00,46.00
             41.00,46.00 33.00,46.00 33.00,46.00
             33.00,46.00 33.00,38.00 33.00,38.00
             33.00,38.00 41.00,38.00 41.00,38.00
             41.00,38.00 41.00,28.00 41.00,28.00 Z" />
</svg>
