<?xml version="1.0" encoding="UTF-8" standalone="no"?>
<!DOCTYPE svg PUBLIC "-//W3C//DTD SVG 20010904//EN"
              "http://www.w3.org/TR/2001/REC-SVG-20010904/DTD/svg10.dtd">

<svg xmlns="http://www.w3.org/2000/svg"
     width="0.333333in" height="0.333333in"
     viewBox="0 0 100 100">
  <path id="Selection"
        fill="white" stroke="black" stroke-width="1"
        d="M 20.00,31.00
           C 20.00,31.00 29.00,31.00 29.00,31.00
             29.22,35.37 29.06,37.53 33.00,40.00
             33.05,38.02 32.92,35.22 34.17,33.56
             35.69,31.56 41.07,30.44 42.83,32.59
             44.16,34.22 43.98,37.96 44.00,40.00
             44.00,40.00 49.00,40.00 49.00,40.00
             49.00,40.00 48.00,31.00 48.00,31.00
             48.00,31.00 60.00,31.00 60.00,31.00
             60.00,31.00 57.79,43.00 57.79,43.00
             57.79,43.00 54.38,52.00 54.38,52.00
             54.38,52.00 58.00,75.00 58.00,75.00
             60.62,75.13 64.27,75.12 65.98,77.51
             67.80,80.06 67.65,86.82 63.85,87.52
             63.85,87.52 47.00,86.00 47.00,86.00
             47.00,86.00 32.00,86.00 32.00,86.00
             32.00,86.00 17.00,85.00 17.00,85.00
             17.00,85.00 17.00,75.00 17.00,75.00
             26.53,74.22 24.79,67.62 26.66,59.00
             27.15,56.74 28.61,52.18 28.10,50.09
             27.30,46.82 23.69,45.74 22.02,42.82
             20.90,40.85 20.21,33.54 20.00,31.00 Z" />
</svg>
