<?xml version="1.0" encoding="UTF-8" standalone="no"?>
<!DOCTYPE svg PUBLIC "-//W3C//DTD SVG 20010904//EN"
              "http://www.w3.org/TR/2001/REC-SVG-20010904/DTD/svg10.dtd">

<svg xmlns="http://www.w3.org/2000/svg"
     width="0.333333in" height="0.333333in"
     viewBox="0 0 100 100">
  <path id="Selection"
        fill="white" stroke="black" stroke-width="1"
        d="M 33.00,32.00
           C 33.65,30.03 33.89,28.62 36.14,27.83
             40.05,26.46 45.12,30.24 41.00,34.00
             41.00,34.00 47.00,54.00 47.00,54.00
             48.34,46.83 53.22,40.68 53.74,37.00
             54.23,33.55 50.70,29.33 55.11,27.65
             58.93,26.18 65.23,32.44 58.00,35.00
             58.00,35.00 59.00,52.00 59.00,52.00
             61.14,43.48 63.66,43.80 66.11,39.00
             67.61,36.08 66.94,33.44 68.75,32.00
             70.32,30.74 77.78,30.21 74.00,39.00
             74.00,39.00 71.00,38.00 71.00,38.00
             71.00,38.00 68.00,53.00 68.00,53.00
             72.39,49.00 73.11,48.66 78.00,45.58
             80.13,44.23 82.81,42.62 84.42,40.68
             86.08,38.67 87.07,34.20 90.70,35.66
             96.93,38.14 88.21,45.72 86.59,48.05
             86.59,48.05 76.28,64.00 76.28,64.00
             71.78,70.54 67.26,74.82 67.00,83.00
             77.35,83.36 76.54,90.80 67.00,91.81
             55.97,93.49 45.02,93.06 34.00,91.81
             32.34,91.35 27.78,90.98 26.64,89.98
             23.21,86.97 28.54,82.30 31.00,81.00
             25.21,71.62 22.58,57.89 21.28,47.00
             21.28,47.00 20.69,39.00 20.69,39.00
             20.69,39.00 17.00,30.02 17.00,30.02
             17.00,30.02 22.39,30.02 22.39,30.02
             22.39,30.02 25.33,37.09 25.33,37.09
             25.33,37.09 36.20,55.00 36.20,55.00
             36.20,55.00 36.20,36.04 36.20,36.04
             36.20,36.04 33.00,32.00 33.00,32.00 Z
           M 68.00,53.00
           C 68.00,53.00 67.00,53.00 67.00,53.00
             67.00,53.00 68.00,54.00 68.00,54.00
             68.00,54.00 68.00,53.00 68.00,53.00 Z" />
</svg>
