<?xml version="1.0" encoding="UTF-8" standalone="no"?>
<!DOCTYPE svg PUBLIC "-//W3C//DTD SVG 20010904//EN"
              "http://www.w3.org/TR/2001/REC-SVG-20010904/DTD/svg10.dtd">

<svg xmlns="http://www.w3.org/2000/svg"
     width="0.333333in" height="0.333333in"
     viewBox="0 0 100 100">
  <path id="Selection"
        fill="white" stroke="black" stroke-width="1"
        d="M 36.00,81.00
           C 30.10,70.63 28.44,64.81 31.37,53.00
             32.13,49.95 32.92,46.79 34.41,44.00
             34.41,44.00 38.38,38.00 38.38,38.00
             40.99,33.58 39.42,31.02 42.32,29.60
             47.58,27.02 49.02,31.25 50.92,34.72
             52.15,36.95 53.69,38.20 53.46,41.01
             53.19,44.39 47.05,52.36 45.00,56.00
             45.00,56.00 53.00,61.00 53.00,61.00
             53.00,61.00 59.00,51.00 59.00,51.00
             66.47,56.67 66.32,60.51 67.17,69.00
             67.17,69.00 68.00,83.00 68.00,83.00
             73.22,83.87 75.37,87.24 71.68,89.69
             69.56,91.09 65.49,90.99 63.00,91.00
             63.00,91.00 31.00,90.00 31.00,90.00
             31.13,84.92 30.90,82.96 36.00,81.00 Z" />
</svg>
