<?xml version="1.0" encoding="UTF-8" standalone="no"?>
<!DOCTYPE svg PUBLIC "-//W3C//DTD SVG 20010904//EN"
              "http://www.w3.org/TR/2001/REC-SVG-20010904/DTD/svg10.dtd">

<svg xmlns="http://www.w3.org/2000/svg"
     width="0.333333in" height="0.333333in"
     viewBox="0 0 100 100">
  <path id="Selection"
        fill="white" stroke="black" stroke-width="1"
        d="M 39.00,45.00
           C 37.29,41.61 36.19,39.93 36.06,36.00
             35.43,17.68 63.13,21.65 59.45,37.00
             58.86,39.50 56.45,42.81 55.00,45.00
             55.00,45.00 64.00,46.00 64.00,46.00
             63.21,50.52 62.44,50.63 58.00,51.00
             58.00,54.54 57.60,58.85 59.74,61.87
             61.96,65.02 65.15,65.45 67.87,67.64
             71.53,70.60 72.54,74.55 73.00,79.00
             73.00,79.00 24.00,79.00 24.00,79.00
             24.14,65.19 30.04,69.03 35.40,60.96
             37.58,57.68 36.09,56.52 39.00,51.00
             33.66,50.68 32.44,50.54 32.00,45.00
             32.00,45.00 39.00,45.00 39.00,45.00 Z" />
</svg>
