<?xml version="1.0" encoding="UTF-8" standalone="no"?>
<!DOCTYPE svg PUBLIC "-//W3C//DTD SVG 20010904//EN"
              "http://www.w3.org/TR/2001/REC-SVG-20010904/DTD/svg10.dtd">

<svg xmlns="http://www.w3.org/2000/svg"
     width="0.333333in" height="0.333333in"
     viewBox="0 0 100 100">
  <path id="Selection"
        fill="white" stroke="black" stroke-width="1"
        d="M 30.00,33.00
           C 30.00,33.00 33.00,33.00 33.00,33.00
             33.00,33.00 33.00,36.00 33.00,36.00
             33.00,36.00 30.00,36.00 30.00,36.00
             30.00,36.00 30.00,33.00 30.00,33.00 Z
           M 26.00,93.00
           C 26.74,86.83 28.21,87.03 34.00,87.00
             34.00,87.00 66.00,87.00 66.00,87.00
             66.00,87.00 84.00,86.00 84.00,86.00
             89.43,86.09 90.34,86.51 91.00,92.00
             91.00,92.00 65.00,93.09 65.00,93.09
             65.00,93.09 56.00,93.98 56.00,93.98
             56.00,93.98 42.00,93.00 42.00,93.00
             42.00,93.00 26.00,93.00 26.00,93.00 Z
           M 58.00,25.00
           C 58.00,25.00 62.00,22.00 62.00,22.00
             60.87,24.71 60.87,24.45 58.00,25.00 Z
           M 25.00,38.00
           C 23.40,29.33 30.82,25.08 38.00,22.37
             45.41,19.58 49.65,19.87 52.91,18.78
             56.36,17.62 57.08,15.68 60.04,14.59
             66.36,12.28 78.84,14.55 84.00,19.00
             76.00,20.14 75.00,15.79 67.00,20.00
             73.80,18.35 77.64,19.30 84.00,22.00
             78.04,29.38 74.81,26.78 67.00,29.00
             73.72,29.00 77.95,27.71 82.00,34.00
             77.37,37.35 72.10,42.74 72.56,49.00
             72.56,49.00 74.82,58.00 74.82,58.00
             76.61,71.17 75.31,73.32 83.00,85.00
             83.00,85.00 66.00,86.00 66.00,86.00
             66.00,86.00 29.00,86.00 29.00,86.00
             29.39,70.92 41.41,71.01 46.54,58.00
             49.41,50.74 42.33,46.86 36.00,47.10
             36.00,47.10 26.00,48.00 26.00,48.00
             29.23,43.69 33.97,45.00 39.00,45.00
             35.03,41.08 32.29,42.00 27.00,42.00
             27.00,42.00 26.00,35.00 26.00,35.00
             26.00,35.00 25.00,38.00 25.00,38.00 Z
           M 62.00,22.00
           C 62.00,22.00 58.00,25.00 58.00,25.00
             60.87,24.45 60.87,24.71 62.00,22.00 Z" />
</svg>
